<?xml version="1.0" encoding="UTF-8"?><svg xmlns="http://www.w3.org/2000/svg" viewBox="0 0 47.35 47.35"><defs><style>.c{fill:#eb0000;}</style></defs><g id="a"><g><polygon class="c" points="29.52 23.67 25.81 24.88 25.81 28.79 23.51 25.63 19.8 26.83 22.1 23.67 19.8 20.52 23.51 21.72 25.81 18.56 25.81 22.47 29.52 23.67"/><polygon class="c" points="29.52 23.67 29.52 24.18 29.52 26.78 29.52 27.24 29.52 29.23 29.52 29.59 29.52 31.75 29.52 31.83 17.9 31.83 17.9 31.75 17.9 15.37 29.52 15.37 29.52 18.8 29.52 19.88 29.52 20.34 29.52 21.08 29.52 23.15 29.52 23.67 34.67 22 34.67 21.81 34.67 18.8 34.67 13.4 31.68 10.22 12.68 10.22 12.68 37.13 31.66 37.13 34.67 34.12 34.67 29.59 34.67 25.57 34.67 25.35 29.52 23.67"/></g></g><g id="b"/></svg>